Coordinates
version=1
nRows=13
nColumns=36
inDegrees=yes

Units are S.I. units (second, meters, Newtons, ...)
If the header above contains a line with 'inDegrees', this indicates whether rotational values are in degrees (yes) or radians (no).

endheader
time	pelvis_tilt	pelvis_list	pelvis_rotation	pelvis_tx	pelvis_ty	pelvis_tz	hip_flexion_r	hip_adduction_r	hip_rotation_r	knee_angle_r	knee_angle_r_beta	ankle_angle_r	subtalar_angle_r	mtp_angle_r	hip_flexion_l	hip_adduction_l	hip_rotation_l	knee_angle_l	knee_angle_l_beta	ankle_angle_l	subtalar_angle_l	mtp_angle_l	lumbar_extension	lumbar_bending	lumbar_rotation	arm_flex_r	arm_add_r	arm_rot_r	elbow_flex_r	pro_sup_r	arm_flex_l	arm_add_l	arm_rot_l	elbow_flex_l	pro_sup_l
      4.75000000	      1.93363755	      0.60191344	      4.38012717	      0.33947612	      0.93193294	     -0.07684012	     -5.68105550	     -4.09998675	     -5.93146205	      1.18897088	      0.02075146	      1.38199197	    -17.08438361	     -7.49999987	     -2.57158032	     -3.13579482	      4.08380922	      1.23971148	      0.02163705	     -1.31444562	    -12.36230176	     -7.49999987	     -6.58416547	     -2.36236374	     -2.35435388	      3.43414118	    -22.05012976	     41.48429113	    102.13026882	     88.33424578	      0.60300851	    -24.32257781	     37.04880943	    105.24368762	     76.68893626
      4.76666670	      1.90467264	      0.61818278	      4.30763721	      0.33938208	      0.93172975	     -0.07695832	     -5.59090640	     -4.13828628	     -5.90299901	      1.18550593	      0.02069098	      1.26409303	    -17.09536326	     -7.49999987	     -2.55300484	     -3.11734298	      3.95586007	      1.26606051	      0.02209692	     -1.33271726	    -12.32490364	     -7.49999987	     -6.57945248	     -2.40739632	     -2.27500621	      3.31742604	    -22.13337236	     41.43462300	    102.19986712	     88.37908805	      0.96728230	    -24.44000986	     37.50490717	    105.19205733	     76.70509568
      4.78333330	      1.95385743	      0.63378922	      4.26598106	      0.33947654	      0.93159473	     -0.07673776	     -5.61503843	     -4.18368344	     -6.01798321	      1.14192279	      0.01993031	      1.27815103	    -16.92531306	     -7.49999987	     -2.60189776	     -3.09724540	      3.99328455	      1.29693823	      0.02263584	     -1.48411657	    -12.52038415	     -7.49999987	     -6.64829578	     -2.43016495	     -2.24209422	      3.19072382	    -22.09838169	     41.27938189	    102.31745163	     87.38983181	      1.34674287	    -24.45195021	     38.09292662	    105.08195537	     75.97341957
      4.80000000	      1.94021946	      0.64537137	      4.16613343	      0.33943585	      0.93127359	     -0.07681941	     -5.52895901	     -4.22034119	     -6.17997648	      1.12731764	      0.01967540	      1.41088857	    -16.61962350	     -7.49999987	     -2.60094638	     -3.08891757	      4.00654069	      1.31778317	      0.02299966	     -1.48303244	    -12.59862804	     -7.49999987	     -6.61544732	     -2.44994822	     -2.23042924	      3.10589399	    -22.29145894	     41.32392934	    102.52243430	     87.82187444	      1.44125801	    -24.65636608	     38.28942385	    105.08316202	     76.19615095
      4.81666670	      1.97997407	      0.65669694	      4.01805824	      0.34330780	      0.93114517	     -0.08107468	     -5.54172264	     -4.31001147	     -6.22245583	      1.13186327	      0.01975474	      1.37368697	    -16.62787641	     -7.49999987	     -2.69319668	     -3.03782962	      3.97779502	      1.35679324	      0.02368051	     -1.48680150	    -12.59765906	     -7.49999987	     -6.57102326	     -2.35568042	     -2.33210915	      3.03623105	    -22.36320496	     41.31541507	    102.52191017	     87.82437108	      1.40989300	    -24.62620997	     38.33142565	    105.08880306	     76.20028750
      4.83333330	      2.05089889	      0.67269824	      3.90316074	      0.34331203	      0.93105270	     -0.08124725	     -5.64819799	     -4.41015206	     -6.41464546	      1.09453205	      0.01910319	      1.22454066	    -16.50304663	     -7.49999987	     -2.85774936	     -2.96798052	      3.83085757	      1.35119098	      0.02358273	     -1.36202431	    -12.58692834	     -7.49999987	     -6.58452211	     -2.26350859	     -2.17986171	      2.67861224	    -22.76417963	     41.22148143	    103.05722017	     88.37207760	      1.45637266	    -24.53312026	     38.84972390	    104.90446776	     76.18058093
      4.85000000	      2.07659744	      0.67406540	      3.77992382	      0.33938695	      0.93095193	     -0.07619206	     -5.63201234	     -4.40099868	     -6.43328558	      1.05949983	      0.01849176	      1.21083818	    -16.51913333	     -7.49999987	     -2.89926162	     -2.94603516	      3.74403363	      1.36341936	      0.02379616	     -1.28683632	    -12.65956588	     -7.49999987	     -6.58672844	     -2.25725689	     -2.24986212	      2.57541953	    -22.78815009	     41.27512556	    103.10900324	     88.37642556	      1.46162766	    -24.61698779	     38.85469297	    104.84425449	     76.18178538
      4.86666670	      2.11919235	      0.72168676	      3.70359924	      0.34322597	      0.93100268	     -0.08090011	     -5.70073293	     -4.48631701	     -6.50104192	      1.06999360	      0.01867491	      1.12919355	    -16.51444085	     -7.49999987	     -2.99570808	     -2.86485826	      3.74244148	      1.38578717	      0.02418655	     -1.29532351	    -12.65154481	     -7.49999987	     -6.51519875	     -2.25393801	     -2.27592303	      2.49153898	    -22.95801195	     41.36113426	    103.25481842	     88.38455414	      1.37502395	    -24.55028860	     38.94472516	    104.83253376	     76.18341129
      4.88333330	      2.18737723	      0.70778598	      3.57376651	      0.34321887	      0.93096434	     -0.08054637	     -5.78387062	     -4.51347670	     -6.37196089	      1.06125917	      0.01852247	      0.87981272	    -16.89092029	     -7.49999987	     -3.11834172	     -2.83860621	      3.79053610	      1.40297413	      0.02448652	     -1.30277756	    -12.94739818	     -7.49999987	     -6.55349667	     -2.15492910	     -2.09738671	      2.24425622	    -23.32002567	     41.68806396	    103.98409816	     84.42922601	      1.70409176	    -24.43551694	     39.54128279	    104.64190639	     73.49796155
      4.90000000	      2.24842380	      0.70012603	      3.59838418	      0.34316278	      0.93110347	     -0.08075060	     -5.89434114	     -4.52557637	     -6.56889177	      1.05757751	      0.01845821	      1.18394025	    -16.33857438	     -7.49999987	     -3.20492276	     -2.81725976	      3.89646007	      1.44660844	      0.02524808	     -1.27881216	    -13.03612283	     -7.49999987	     -6.56202080	     -2.08266314	     -2.05674962	      1.86329774	    -23.37911494	     41.02667726	    104.03092968	     88.54991834	      1.93150500	    -24.25799295	     39.66789896	    104.32593361	     74.96416364
      4.91666670	      2.22509972	      0.72419270	      3.56404388	      0.34318212	      0.93093881	     -0.08044487	     -5.89391949	     -4.56741203	     -6.64181330	      1.04318527	      0.01820702	      1.34066532	    -16.09436857	     -7.49999987	     -3.22575401	     -2.77233994	      3.94043338	      1.45293868	      0.02535856	     -1.20601333	    -13.04192972	     -7.49999987	     -6.46460225	     -2.07049027	     -2.02366091	      1.43703266	    -23.32735729	     40.42112092	    104.09083288	     88.62520070	      1.99229105	    -24.26024755	     39.90007971	    104.18312030	     74.67431098
      4.93333330	      2.26041702	      0.72010283	      3.61181605	      0.34316665	      0.93103159	     -0.08060666	     -5.99127220	     -4.57521775	     -6.68857105	      1.02705817	      0.01792555	      1.39381506	    -16.05522719	     -7.49999987	     -3.24208457	     -2.74348866	      4.06837026	      1.50030459	      0.02618525	     -1.23174381	    -13.25086317	     -7.49999987	     -6.44827266	     -2.03202929	     -2.05834472	      1.24847925	    -23.34770530	     40.10125175	    104.07700932	     88.42450987	      1.97572563	    -24.26388905	     39.99873565	    104.08947304	     74.28608021
      4.95000000	      2.24778877	      0.73034304	      3.56694066	      0.34321717	      0.93103605	     -0.08032671	     -5.98149604	     -4.61128754	     -6.59930742	      1.03357282	      0.01803925	      1.48052037	    -15.95041351	     -7.49999987	     -3.22580621	     -2.71264274	      4.16758272	      1.56065357	      0.02723854	     -1.32295755	    -13.54373792	     -7.49999987	     -6.38444729	     -2.01592850	     -1.98559369	      1.14906106	    -23.39463204	     39.88266132	    104.19866995	     88.55325135	      1.96634708	    -24.26759313	     40.08421465	    103.99981854	     74.11080755
